#tb 0: 1/25
#tb 1: 1/44100
0,          0,          0,        1,   230400, 0xd133e177
1,          0,          0,    44100,   176400, 0xdd61578c
0,          1,          1,        1,   230400, 0xe3501bb2
0,          2,          2,        1,   230400, 0x44da84f0
0,          3,          3,        1,   230400, 0xe0fd17ed
0,          4,          4,        1,   230400, 0xef4e08c7
0,          5,          5,        1,   230400, 0xf52f82b5
0,          6,          6,        1,   230400, 0x05eb186c
0,          7,          7,        1,   230400, 0x0653f05d
0,          8,          8,        1,   230400, 0xde1a0735
0,          9,          9,        1,   230400, 0x6045576e
0,         10,         10,        1,   230400, 0xac9444c4
0,         11,         11,        1,   230400, 0x5f7f82fb
0,         12,         12,        1,   230400, 0xaf4718ce
0,         13,         13,        1,   230400, 0x117d5787
0,         14,         14,        1,   230400, 0x319ac1f5
0,         15,         15,        1,   230400, 0xd05cb30a
0,         16,         16,        1,   230400, 0x96107c72
0,         17,         17,        1,   230400, 0x73ff0a30
0,         18,         18,        1,   230400, 0x865d0f3e
0,         19,         19,        1,   230400, 0x3384ad55
0,         20,         20,        1,   230400, 0x6694b2ea
0,         21,         21,        1,   230400, 0x324f5cb8
0,         22,         22,        1,   230400, 0x2de7c12f
0,         23,         23,        1,   230400, 0x57fedb1a
0,         24,         24,        1,   230400, 0xf46f2abf
0,         25,         25,        1,   230400, 0xe5fead9b
1,      44100,      44100,    44100,   176400, 0x0b9e6d67
0,         26,         26,        1,   230400, 0x65764edb
0,         27,         27,        1,   230400, 0xeabdcf53
0,         28,         28,        1,   230400, 0xaeb659fc
0,         29,         29,        1,   230400, 0x5ec97eb1
0,         30,         30,        1,   230400, 0x2482abae
0,         31,         31,        1,   230400, 0x297fb0c8
0,         32,         32,        1,   230400, 0x57a52a3d
0,         33,         33,        1,   230400, 0x44040e98
0,         34,         34,        1,   230400, 0xa150e542
0,         35,         35,        1,   230400, 0x0a1e1296
0,         36,         36,        1,   230400, 0xf1085864
0,         37,         37,        1,   230400, 0xe7a13b40
0,         38,         38,        1,   230400, 0x759d384d
0,         39,         39,        1,   230400, 0x72e08991
0,         40,         40,        1,   230400, 0x10a4bbc9
0,         41,         41,        1,   230400, 0xb258ac16
0,         42,         42,        1,   230400, 0xde06facb
0,         43,         43,        1,   230400, 0x94284e11
0,         44,         44,        1,   230400, 0xedf23092
0,         45,         45,        1,   230400, 0xc2be6319
0,         46,         46,        1,   230400, 0x103a0b7b
0,         47,         47,        1,   230400, 0x3415888b
0,         48,         48,        1,   230400, 0x5ecaac75
0,         49,         49,        1,   230400, 0xb9ba503e
0,         50,         50,        1,   230400, 0xb20ccf57
1,      88200,      88200,    44100,   176400, 0x2793fad7
0,         51,         51,        1,   230400, 0x0dba31ed
0,         52,         52,        1,   230400, 0x91c5e7d4
0,         53,         53,        1,   230400, 0x09ac954b
0,         54,         54,        1,   230400, 0xe9c3d563
0,         55,         55,        1,   230400, 0xf46eef67
0,         56,         56,        1,   230400, 0x117f4b80
0,         57,         57,        1,   230400, 0x61714860
0,         58,         58,        1,   230400, 0x5c7112d0
0,         59,         59,        1,   230400, 0xd42c51e7
0,         60,         60,        1,   230400, 0x425f0c99
0,         61,         61,        1,   230400, 0x4c398834
0,         62,         62,        1,   230400, 0x237f89c2
0,         63,         63,        1,   230400, 0xd2e29b05
0,         64,         64,        1,   230400, 0x204a054b
0,         65,         65,        1,   230400, 0x25a9faf7
0,         66,         66,        1,   230400, 0x83f6c1a8
0,         67,         67,        1,   230400, 0xe48321b9
0,         68,         68,        1,   230400, 0x714c1005
0,         69,         69,        1,   230400, 0x36cc58e9
0,         70,         70,        1,   230400, 0x5e9ffdd9
0,         71,         71,        1,   230400, 0x582b55dc
0,         72,         72,        1,   230400, 0x139a7f39
0,         73,         73,        1,   230400, 0xefb5f998
0,         74,         74,        1,   230400, 0xeb736da8
0,         75,         75,        1,   230400, 0x488f9847
1,     132300,     132300,    44100,   176400, 0xe2649a4a
0,         76,         76,        1,   230400, 0x6ab20741
0,         77,         77,        1,   230400, 0xa73686f0
0,         78,         78,        1,   230400, 0x67878643
0,         79,         79,        1,   230400, 0x83bb241b
0,         80,         80,        1,   230400, 0xe6b70660
0,         81,         81,        1,   230400, 0x87f5aca3
0,         82,         82,        1,   230400, 0x29c79bc3
0,         83,         83,        1,   230400, 0xcadbd70b
0,         84,         84,        1,   230400, 0x8cdcfdee
0,         85,         85,        1,   230400, 0x90aa0442
0,         86,         86,        1,   230400, 0xa68e87b7
0,         87,         87,        1,   230400, 0xa2c49e58
0,         88,         88,        1,   230400, 0x9a9a4c55
0,         89,         89,        1,   230400, 0x06b53aed
0,         90,         90,        1,   230400, 0x79e1808a
0,         91,         91,        1,   230400, 0x3e53a411
0,         92,         92,        1,   230400, 0xfebc13ca
0,         93,         93,        1,   230400, 0x1f1f443b
0,         94,         94,        1,   230400, 0xd0db806a
0,         95,         95,        1,   230400, 0x6f2aee94
0,         96,         96,        1,   230400, 0xe8cc23ba
0,         97,         97,        1,   230400, 0x2edf510b
0,         98,         98,        1,   230400, 0x87118129
0,         99,         99,        1,   230400, 0x1dd1709a
